<svg id="Capa_1" data-name="Capa 1" xmlns="http://www.w3.org/2000/svg" viewBox="0 0 508.01 449.67"><defs><style>.cls-1{fill:#fff;stroke:#fff;stroke-miterlimit:10;}</style></defs><title>corazon</title><path class="cls-1" d="M471.15,82.42c-21.51-22.08-50.23-37.23-80.89-40.81C336.13,35.3,279.59,65.5,254.73,114c-19-40.53-60-69.88-104.47-74.82S59.35,53.9,31.94,89.28c-34.52,44.55-36.69,108.19-16.87,161,38,101.15,139,167,222.3,228.19,6.22,4.57,13.23,9.34,20.91,8.61,6.67-.64,12.17-5.3,17.18-9.74l99.83-88.36c36.59-32.39,73.65-65.32,100.2-106.35s41.71-91.89,30-139.34C499.86,120.29,487.62,99.32,471.15,82.42Z" transform="translate(-1.99 -37.93)"/></svg>